<svg width="71" height="60" viewBox="0 0 71 60" fill="none" xmlns="http://www.w3.org/2000/svg">
<g clip-path="url(#clip0_636_91764)">
<path d="M20.8148 40.9997H50.1852C50.205 41.0006 50.3145 41.0038 50.4049 40.9179C50.5023 40.8252 50.5005 40.7021 50.4999 40.6835V19.3204C50.4999 19.1453 50.3572 19 50.1852 19H20.8148C20.6428 19 20.5001 19.1453 20.5001 19.3204V40.6835C20.4995 40.7035 20.4984 40.8164 20.586 40.9076C20.6779 41.0034 20.7962 41.0005 20.8148 40.9997ZM21.1295 22.0507L29.0931 28.5493L21.1295 39.6966V22.0507ZM29.5923 28.9381C31.3545 30.284 33.4273 30.9633 35.5 30.9633C37.5727 30.9633 39.6455 30.284 41.4077 28.9381L49.5685 40.3631H21.4315L29.5923 28.9381ZM41.9069 28.5493L49.8705 22.0507V39.7008L41.9069 28.5493ZM49.8705 19.6409V21.2303L41.2818 28.2416C37.879 31.0188 33.1252 31.0188 29.7224 28.2416L21.1295 21.2303V19.6409H49.8705Z" fill="#000002"/>
</g>
<rect x="1" y="0.5" width="69" height="59" rx="9.5" stroke="#3E4243"/>
<defs>
<clipPath id="clip0_636_91764">
<rect width="30" height="30" fill="white" transform="translate(20.5 15)"/>
</clipPath>
</defs>
</svg>
