<svg width="70" height="60" viewBox="0 0 70 60" fill="none" xmlns="http://www.w3.org/2000/svg">
<g clip-path="url(#clip0_636_91767)">
<path d="M38.2391 27.2828H36.9457C36.9457 25.8521 36.4366 25.3429 35.0059 25.3429V24.0498C37.1479 24.0498 38.2391 25.141 38.2391 27.2828Z" fill="#000002"/>
<path d="M40.8254 27.2829H39.5322C39.5322 24.4056 37.8834 22.7565 35.0059 22.7565V21.4634C38.5947 21.4634 40.8254 23.6942 40.8254 27.2829Z" fill="#000002"/>
<path d="M43.4119 27.2827H42.1187C42.1187 23.0313 39.2573 20.1701 35.0059 20.1701V18.8767C40.0333 18.8767 43.4119 22.2553 43.4119 27.2827Z" fill="#000002"/>
<path d="M28.5406 44.9999V40.5384L27.1584 40.3767C23.8525 39.9725 21.2662 37.2569 21.0074 33.9188C20.862 31.9385 20.7812 29.926 20.7812 27.9295C20.7812 25.9331 20.862 23.9206 21.0074 21.9403C21.2662 18.6021 23.901 15.8783 27.2716 15.466C32.4041 14.8447 37.5928 14.8447 42.7256 15.466C46.104 15.8783 48.739 18.6021 48.9976 21.9403C49.1513 23.9206 49.224 25.9331 49.224 27.9295C49.224 29.926 49.1432 31.9465 48.9976 33.9188C48.739 37.2486 46.1606 39.9645 42.8629 40.3767C40.5537 40.6623 38.2305 40.8214 35.9038 40.8536L28.5406 44.9999ZM35.0065 16.2905C32.4752 16.291 29.946 16.4449 27.4331 16.7511C24.669 17.0907 22.5108 19.3135 22.3008 22.0454C22.1471 23.9852 22.0744 25.9734 22.0744 27.9295C22.0744 29.8855 22.1471 31.8738 22.3008 33.8217C22.512 36.548 24.6079 38.7516 27.3201 39.0997C27.9611 39.1804 28.6052 39.2505 29.2517 39.3097L29.8418 39.3663V42.7935L35.5644 39.5685H35.7259C38.0607 39.5425 40.3922 39.386 42.7093 39.0997C45.4009 38.7684 47.5023 36.5456 47.7125 33.8298C47.866 31.8899 47.9389 29.9016 47.9389 27.9376C47.9389 25.9734 47.866 23.9933 47.7125 22.0454C47.5023 19.3135 45.3443 17.0907 42.5719 16.7511C40.0617 16.4456 37.5353 16.2917 35.0065 16.2905Z" fill="#000002"/>
<path d="M37.5455 36.3353H36.9474C30.8854 36.3353 25.9551 31.405 25.9551 25.343V24.7449C25.952 23.7134 26.3624 22.7236 27.0948 21.9968L27.6283 21.4633C28.0429 21.0511 28.6034 20.8188 29.1881 20.8167C29.7737 20.8152 30.3353 21.048 30.7481 21.4633L32.4213 23.1365C32.8359 23.5498 33.0684 24.1112 33.0677 24.6963C33.0658 25.2812 32.8335 25.8417 32.4213 26.2563L32.2676 26.41C31.951 26.7276 31.7736 27.1578 31.7746 27.6061C31.7755 28.0541 31.9524 28.4839 32.2676 28.8024L33.48 30.0148C34.1106 30.6453 35.242 30.6453 35.8806 30.0148L36.0341 29.8613C36.4482 29.4488 37.0097 29.2189 37.5941 29.2227C38.179 29.2246 38.7395 29.4569 39.1541 29.8694L40.8271 31.5423C41.6885 32.404 41.6885 33.8007 40.8271 34.6624L40.2938 35.1959C39.5671 35.928 38.5773 36.3384 37.5455 36.3353ZM29.1881 22.11C28.9458 22.1105 28.7135 22.2062 28.5416 22.3767L28.0081 22.9102C27.5194 23.3954 27.2456 24.0563 27.2482 24.7449V25.343C27.2527 30.6979 31.5927 35.0377 36.9474 35.0422H37.5455C38.2315 35.0429 38.8891 34.7691 39.3722 34.2825L39.9057 33.749C40.0762 33.5769 40.1721 33.3446 40.1726 33.1023C40.1728 32.8599 40.0769 32.6273 39.9057 32.4557L38.2408 30.7827C37.8771 30.4419 37.3111 30.4419 36.9474 30.7827L36.8181 30.912C36.2597 31.4829 35.4961 31.8066 34.6976 31.8111C33.8989 31.8158 33.1317 31.5007 32.5667 30.9361L31.3543 29.7237C30.7952 29.1606 30.4815 28.3996 30.4815 27.6061C30.4793 26.8147 30.7935 26.0551 31.3543 25.4967L31.508 25.343C31.6782 25.1709 31.7741 24.9386 31.7746 24.6963C31.7751 24.4541 31.6792 24.2213 31.508 24.0499L29.8348 22.3767C29.6636 22.2048 29.4308 22.1086 29.1881 22.11Z" fill="#000002"/>
</g>
<rect x="0.5" y="0.5" width="69" height="59" rx="9.5" stroke="#3E4243"/>
<defs>
<clipPath id="clip0_636_91767">
<rect width="30" height="30" fill="white" transform="translate(20 15)"/>
</clipPath>
</defs>
</svg>
