<svg width="70" height="60" viewBox="0 0 70 60" fill="none" xmlns="http://www.w3.org/2000/svg">
<path d="M39.2033 45C36.0254 45 32.8939 43.5144 30.9192 40.7329L22.9508 29.5099C19.7134 24.9493 20.7895 18.6047 25.3491 15.3673C25.821 15.0324 26.4131 14.9195 26.9748 15.0576C27.5365 15.1958 28.0086 15.57 28.2718 16.0843L31.5293 22.4683C31.9741 23.3407 31.7078 24.4259 30.909 24.9927L28.9424 26.3895L35.8398 36.1047L37.8064 34.7079C38.6052 34.1411 39.7176 34.247 40.3943 34.955L45.3472 40.1358C45.7466 40.5533 45.9443 41.1232 45.8888 41.699C45.8333 42.2749 45.5318 42.7963 45.0608 43.1312C43.2828 44.3938 41.2334 45 39.2033 45ZM26.4998 15.8574C26.2678 15.8574 26.0389 15.929 25.8452 16.0662C21.6709 19.0302 20.6856 24.8384 23.6497 29.0137L31.6171 40.2356C34.5812 44.4109 40.3893 45.3953 44.5646 42.4312C44.8329 42.2406 45.0044 41.944 45.0356 41.6163C45.0669 41.2885 44.9549 40.9648 44.727 40.7278L39.7741 35.5469C39.3889 35.1445 38.7565 35.084 38.3017 35.4067L35.9851 37.0516C35.8922 37.1172 35.7773 37.1434 35.6654 37.1242C35.5535 37.1051 35.4535 37.0425 35.388 36.9497L27.9954 26.5367C27.9299 26.4439 27.9037 26.329 27.9228 26.2171C27.942 26.1051 28.0045 26.0052 28.0973 25.9397L30.4139 24.2948C30.8678 23.9721 31.0201 23.3549 30.7669 22.8587L27.5073 16.4747C27.3581 16.1822 27.0888 15.9695 26.7701 15.8908C26.6814 15.8686 26.5906 15.8585 26.4998 15.8585L26.4998 15.8574Z" fill="#000002"/>
<path d="M48.2067 31.6096C48.1775 31.6096 48.1472 31.6066 48.117 31.6005C47.885 31.5511 47.7378 31.3232 47.7872 31.0922C48.468 27.9053 47.8659 24.6447 46.0939 21.9095C44.3219 19.1754 41.5908 17.2945 38.4038 16.6137C38.1718 16.5643 38.0246 16.3364 38.074 16.1054C38.1234 15.8735 38.3513 15.7262 38.5823 15.7757C41.9931 16.5038 44.9159 18.5168 46.8129 21.4436C48.7099 24.3704 49.3534 27.8609 48.6253 31.2718C48.5819 31.4735 48.4044 31.6107 48.2067 31.6107V31.6096Z" fill="#000002"/>
<path d="M43.9236 30.2068C43.8943 30.2068 43.8641 30.2038 43.8338 30.1977C43.6018 30.1483 43.4546 29.9204 43.5041 29.6894C43.8742 27.9568 43.5474 26.1838 42.5833 24.6972C41.6191 23.2106 40.1345 22.188 38.4018 21.8178C38.1699 21.7684 38.0226 21.5405 38.0721 21.3095C38.1215 21.0776 38.3494 20.9303 38.5804 20.9798C40.5369 21.3973 42.2141 22.5521 43.3023 24.2313C44.3905 25.9106 44.7597 27.9125 44.3421 29.869C44.2988 30.0707 44.1212 30.2079 43.9236 30.2079V30.2068Z" fill="#000002"/>
<rect x="0.5" y="0.5" width="69" height="59" rx="9.5" stroke="#3E4243"/>
</svg>
