<svg width="71" height="60" viewBox="0 0 71 60" fill="none" xmlns="http://www.w3.org/2000/svg">
<path d="M45.9228 43.2997C45.9204 43.3067 45.0198 45.8871 42.604 44.6772C41.2909 44.0178 33.1174 36.3732 31.2894 34.7666C34.8504 31.0924 38.4114 27.4182 41.9699 23.7398L28.6047 33.4827C26.4177 32.6375 24.2295 31.7979 22.045 30.9471C20.0965 30.229 19.8738 27.7409 22.0523 26.7937L47.4307 15.3631C47.6741 15.2444 50.5 14.0108 50.5 16.8943L45.9228 43.2997ZM44.5744 42.72L49.0578 16.7685C48.9824 16.3843 47.9759 16.8859 47.9759 16.8859L22.5367 28.3388C21.7419 28.642 21.7225 29.0695 22.5148 29.3936L28.41 31.6722L44.275 20.1103C44.8141 19.7331 45.6271 19.4662 46.0981 20.1158C46.5739 20.7739 46.1747 21.5827 45.7123 22.0787C45.2547 22.569 36.278 31.8342 33.5336 34.666L43.2515 43.2047C44.1046 43.5833 44.4807 42.9267 44.5744 42.72Z" fill="#000002"/>
<rect x="1" y="0.5" width="69" height="59" rx="9.5" stroke="#3E4243"/>
</svg>
