<svg width="71" height="60" viewBox="0 0 71 60" fill="none" xmlns="http://www.w3.org/2000/svg">
<path d="M37.7028 33.6033C37.3296 34.0644 36.7988 34.1649 36.259 33.9492C35.1701 33.5143 34.209 32.9333 33.3713 32.2131C32.5369 31.4952 31.8236 30.6403 31.2278 29.6507C30.8009 29.0036 30.9869 28.4968 31.4458 27.9478C31.7083 27.6419 32.005 27.2961 32.0575 26.9879C32.1899 26.2106 31.2335 24.0511 30.3055 24.1367C30.1412 24.1527 29.9517 24.2372 29.736 24.4118C28.4051 25.4961 28.4405 27.1271 29.2395 28.8016C30.689 31.8422 34.9213 35.4204 38.3123 35.8735C39.6363 36.0504 41.8152 35.2321 41.4945 33.7243C41.3427 33.1662 39.3304 32.1538 38.7038 32.2907C38.455 32.341 37.9299 33.3237 37.7028 33.6033ZM38.4196 30.9736C39.7208 30.6882 42.5217 32.1161 42.8116 33.4355C42.8116 36.184 40.829 37.5662 38.1388 37.2055C34.2867 36.6908 29.6721 32.8397 28.0216 29.3814C26.959 27.1511 26.9704 24.9323 28.8879 23.3686C29.3228 23.0148 29.76 22.8378 30.1845 22.799C32.1192 22.6187 33.66 25.6045 33.385 27.2139C33.2822 27.8165 32.8017 28.5082 32.3669 28.9362C32.7926 29.7158 33.571 30.6118 34.2456 31.1905C34.9646 31.8102 35.7864 32.309 36.7144 32.6834C37.1858 32.0202 37.5248 31.1676 38.4196 30.9736ZM35.0012 42.4981C32.796 42.4981 30.6137 41.908 28.7099 40.7952C28.5706 40.7164 28.3743 40.6981 28.259 40.7392L22.9619 42.1899L24.9182 37.8801C25.005 37.6895 24.9856 37.4703 24.8623 37.3003C23.3237 35.1659 22.5031 32.632 22.5031 30C22.5031 23.1072 28.1084 17.5019 35.0012 17.5019C41.8928 17.5019 47.4993 23.1072 47.4993 30C47.4993 36.8916 41.8928 42.4981 35.0012 42.4981ZM35.0012 41.149C41.1486 41.149 46.1502 36.1475 46.1502 30C46.1502 23.8525 41.1486 18.8499 35.0012 18.8499C28.8537 18.8499 23.851 23.8514 23.851 30C23.851 32.3558 24.5747 34.6032 25.9535 36.515C26.3552 37.0731 26.4306 37.807 26.1463 38.4336L25.3736 40.1354L27.9098 39.4392C28.4029 39.3045 28.9439 39.373 29.3844 39.631C31.3659 40.6205 32.7321 41.149 35.0012 41.149ZM35.0114 16.3491C27.484 16.3491 21.3491 22.4726 21.3491 30C21.3491 32.9002 22.1652 35.2926 23.7278 37.7077L21.4005 42.8337C21.2247 43.2229 21.5089 43.652 21.9267 43.652C23.1046 43.652 26.7581 42.3497 28.3344 41.9171C30.4585 43.0539 32.5792 43.652 35.0012 43.652C42.5286 43.652 48.6532 37.5274 48.6532 30C48.6532 22.4749 42.5365 16.3491 35.0114 16.3491ZM35.0034 15C43.2762 15 50.0012 21.7261 50.0012 30C50.0012 38.2716 43.2727 45 35.0012 45C32.6305 45 30.2884 44.435 28.1791 43.3553C26.6349 43.8107 23.1982 45 21.9267 45C20.5536 45 19.5903 43.5653 20.1735 42.2812L22.2006 37.815C20.7556 35.4558 20.0012 32.7667 20.0012 30C20.0012 21.7284 26.7319 15 35.0034 15Z" fill="#000002"/>
<rect x="0.5" y="0.5" width="69.0012" height="59" rx="9.5" stroke="#3E4243"/>
</svg>
