<svg width="25" height="26" viewBox="0 0 25 26" fill="none" xmlns="http://www.w3.org/2000/svg">
<g clip-path="url(#clip0_874_12760)">
<path d="M1.22093 25.5C0.979466 25.5001 0.743411 25.4285 0.542626 25.2944C0.34184 25.1603 0.185345 24.9696 0.0929338 24.7465C0.000522909 24.5234 -0.0236515 24.2779 0.0234685 24.0411C0.0705884 23.8043 0.186886 23.5868 0.35765 23.416L22.9162 0.857453C23.1452 0.628497 23.4557 0.49987 23.7795 0.49987C24.1033 0.49987 24.4138 0.628497 24.6428 0.857453C24.8718 1.08641 25.0004 1.39694 25.0004 1.72073C25.0004 2.04453 24.8718 2.35506 24.6428 2.58402L2.08421 25.1426C1.97095 25.2561 1.83638 25.3461 1.68823 25.4074C1.54008 25.4688 1.38128 25.5002 1.22093 25.5Z" fill="#3E4243"/>
<path d="M23.7795 25.5C23.6191 25.5002 23.4603 25.4688 23.3122 25.4074C23.164 25.3461 23.0294 25.2561 22.9162 25.1426L0.357583 2.58402C0.128626 2.35506 0 2.04453 0 1.72073C0 1.39694 0.128626 1.08641 0.357583 0.857453C0.586539 0.628497 0.897071 0.49987 1.22086 0.49987C1.54466 0.49987 1.85519 0.628497 2.08415 0.857453L24.6427 23.416C24.8135 23.5868 24.9298 23.8043 24.9769 24.0411C25.024 24.2779 24.9999 24.5234 24.9075 24.7465C24.815 24.9696 24.6585 25.1603 24.4578 25.2944C24.257 25.4285 24.0209 25.5001 23.7795 25.5Z" fill="#3E4243"/>
</g>
<defs>
<clipPath id="clip0_874_12760">
<rect width="25" height="25" fill="white" transform="translate(0 0.5)"/>
</clipPath>
</defs>
</svg>
