<svg width="92" height="26" viewBox="0 0 92 26" fill="none" xmlns="http://www.w3.org/2000/svg">
<path d="M4.5 3.49994C3.78404 4.64853 3.5 5.41167 3.5 5.41167M4.5 3.49994C5.72222 1.53918 12.4505 1.00002 15 0.999976C16.7402 0.999944 13.7486 0.999932 15.2478 0.999943C15.8 0.999947 16.25 1.44766 16.25 1.99994V3.49994M4.5 3.49994C6.74551 3.49994 16.25 3.49994 16.25 3.49994M16.25 3.49994V8.86765V14.2354M16.25 17.9285V14.2354M16.25 17.9285H12.5M16.25 17.9285L23 17.9285M16.25 14.2354L12.5 14.2354L11.5 14.2354M1.5 14.2354V14.2354C1.22386 14.2354 1 14.4592 1 14.7354V16.9285C1 17.4808 1.44771 17.9285 2 17.9285H4.26056M1.5 14.2354V10.6896V11M1.5 14.2354L11.5 14.2354M1.5 11L3.5 5.41167M1.5 11H5H11.5M3.5 5.41167H10.5C11.0523 5.41167 11.5 5.85938 11.5 6.41167V11M11.5 11V14.2354" stroke="#000002" stroke-width="1.1"/>
<ellipse cx="27.4982" cy="20.3922" rx="2.11538" ry="2.07388" stroke="#000002" stroke-width="1.1"/>
<path d="M32.45 20.392C32.45 23.056 30.2441 25.2341 27.5 25.2341C24.7559 25.2341 22.55 23.056 22.55 20.392C22.55 17.728 24.7559 15.5499 27.5 15.5499C30.2441 15.5499 32.45 17.728 32.45 20.392Z" stroke="#000002" stroke-width="1.1"/>
<path d="M13.45 20.6079C13.45 23.2719 11.2441 25.45 8.5 25.45C5.75587 25.45 3.55 23.2719 3.55 20.6079C3.55 17.9439 5.75587 15.7658 8.5 15.7658C11.2441 15.7658 13.45 17.9439 13.45 20.6079Z" fill="#FE5000" stroke="#000002" stroke-width="1.1"/>
<ellipse cx="8.4982" cy="20.6079" rx="2.11538" ry="2.07388" stroke="#000002" stroke-width="1.1"/>
<ellipse cx="38.4982" cy="20.3922" rx="2.11538" ry="2.07388" stroke="#000002" stroke-width="1.1"/>
<path d="M43.45 20.392C43.45 23.056 41.2441 25.2341 38.5 25.2341C35.7559 25.2341 33.55 23.056 33.55 20.392C33.55 17.728 35.7559 15.5499 38.5 15.5499C41.2441 15.5499 43.45 17.728 43.45 20.392Z" stroke="#000002" stroke-width="1.1"/>
<ellipse cx="85.4982" cy="20.6079" rx="2.11538" ry="2.07388" stroke="#000002" stroke-width="1.1"/>
<path d="M90.45 20.6079C90.45 23.2719 88.2441 25.45 85.5 25.45C82.7559 25.45 80.55 23.2719 80.55 20.6079C80.55 17.9439 82.7559 15.7658 85.5 15.7658C88.2441 15.7658 90.45 17.9439 90.45 20.6079Z" stroke="#000002" stroke-width="1.1"/>
<ellipse cx="74.4982" cy="20.6079" rx="2.11538" ry="2.07388" stroke="#000002" stroke-width="1.1"/>
<path d="M79.45 20.6079C79.45 23.2719 77.2441 25.45 74.5 25.45C71.7559 25.45 69.55 23.2719 69.55 20.6079C69.55 17.9439 71.7559 15.7658 74.5 15.7658C77.2441 15.7658 79.45 17.9439 79.45 20.6079Z" stroke="#000002" stroke-width="1.1"/>
<path d="M56 13.9999H60.375M56 13.9999H51.625M56 13.9999V9.99994M73.5 13.9999H77.875M73.5 13.9999H69.125M73.5 13.9999V9.99994M38.5 13.9999H42.875M38.5 13.9999H34.125M38.5 13.9999V9.99994M29.75 13.9999H34.125M29.75 13.9999H25.375M29.75 13.9999V9.99994M47.25 13.9999H51.625M47.25 13.9999H42.875M47.25 13.9999V9.99994M64.75 13.9999H69.125M64.75 13.9999H60.375M64.75 13.9999V9.99994M82.25 13.9999H86.625M82.25 13.9999H77.875M82.25 13.9999V9.99994M86.625 13.9999H90C90.5523 13.9999 91 13.5522 91 12.9999V1.99994C91 1.44765 90.5523 0.999939 90 0.999939H22C21.4477 0.999939 21 1.44765 21 1.99994V12.9999C21 13.5522 21.4477 13.9999 22 13.9999H25.375M86.625 13.9999V9.99994M77.875 13.9999V9.99994M69.125 13.9999V9.99994M60.375 13.9999V9.99994M51.625 13.9999V9.99994M42.875 13.9999V9.99994M34.125 13.9999V9.99994M25.375 13.9999V9.99994" stroke="#000002" stroke-width="1.1"/>
</svg>
