<svg width="16" height="15" viewBox="0 0 16 15" fill="none" xmlns="http://www.w3.org/2000/svg">
<mask id="path-1-outside-1_303_25623" maskUnits="userSpaceOnUse" x="0" y="-0.5" width="16" height="16" fill="black">
<rect fill="white" y="-0.5" width="16" height="16"/>
<path fill-rule="evenodd" clip-rule="evenodd" d="M7.99772 0.5C7.73999 0.5 7.53105 0.708933 7.53105 0.966666V7.0331H1.46667C1.20893 7.0331 1 7.24204 1 7.49977C1 7.7575 1.20893 7.96644 1.46667 7.96644H7.53105V14.0333C7.53105 14.2911 7.73999 14.5 7.99772 14.5C8.25545 14.5 8.46439 14.2911 8.46439 14.0333V7.96644H14.5333C14.7911 7.96644 15 7.7575 15 7.49977C15 7.24204 14.7911 7.03311 14.5333 7.03311H8.46439V0.966666C8.46439 0.708934 8.25545 0.5 7.99772 0.5Z"/>
</mask>
<path fill-rule="evenodd" clip-rule="evenodd" d="M7.99772 0.5C7.73999 0.5 7.53105 0.708933 7.53105 0.966666V7.0331H1.46667C1.20893 7.0331 1 7.24204 1 7.49977C1 7.7575 1.20893 7.96644 1.46667 7.96644H7.53105V14.0333C7.53105 14.2911 7.73999 14.5 7.99772 14.5C8.25545 14.5 8.46439 14.2911 8.46439 14.0333V7.96644H14.5333C14.7911 7.96644 15 7.7575 15 7.49977C15 7.24204 14.7911 7.03311 14.5333 7.03311H8.46439V0.966666C8.46439 0.708934 8.25545 0.5 7.99772 0.5Z" fill="white"/>
<path d="M7.53105 7.0331V7.33311H7.83105V7.0331H7.53105ZM7.53105 7.96644H7.83105V7.66644H7.53105V7.96644ZM8.46439 7.96644V7.66644H8.16439V7.96644H8.46439ZM8.46439 7.03311H8.16439V7.33311H8.46439V7.03311ZM7.83105 0.966666C7.83105 0.874619 7.90567 0.8 7.99772 0.8V0.2C7.5743 0.2 7.23105 0.543248 7.23105 0.966666H7.83105ZM7.83105 7.0331V0.966666H7.23105V7.0331H7.83105ZM1.46667 7.33311H7.53105V6.7331H1.46667V7.33311ZM1.3 7.49977C1.3 7.40772 1.37462 7.33311 1.46667 7.33311V6.7331C1.04325 6.7331 0.7 7.07635 0.7 7.49977H1.3ZM1.46667 7.66644C1.37462 7.66644 1.3 7.59182 1.3 7.49977H0.7C0.7 7.92319 1.04325 8.26644 1.46667 8.26644V7.66644ZM7.53105 7.66644H1.46667V8.26644H7.53105V7.66644ZM7.83105 14.0333V7.96644H7.23105V14.0333H7.83105ZM7.99772 14.2C7.90567 14.2 7.83105 14.1254 7.83105 14.0333H7.23105C7.23105 14.4568 7.5743 14.8 7.99772 14.8V14.2ZM8.16439 14.0333C8.16439 14.1254 8.08977 14.2 7.99772 14.2V14.8C8.42114 14.8 8.76439 14.4568 8.76439 14.0333H8.16439ZM8.16439 7.96644V14.0333H8.76439V7.96644H8.16439ZM14.5333 7.66644H8.46439V8.26644H14.5333V7.66644ZM14.7 7.49977C14.7 7.59182 14.6254 7.66644 14.5333 7.66644V8.26644C14.9568 8.26644 15.3 7.92319 15.3 7.49977H14.7ZM14.5333 7.33311C14.6254 7.33311 14.7 7.40772 14.7 7.49977H15.3C15.3 7.07635 14.9568 6.73311 14.5333 6.73311V7.33311ZM8.46439 7.33311H14.5333V6.73311H8.46439V7.33311ZM8.16439 0.966666V7.03311H8.76439V0.966666H8.16439ZM7.99772 0.8C8.08977 0.8 8.16439 0.874619 8.16439 0.966666H8.76439C8.76439 0.543248 8.42114 0.2 7.99772 0.2V0.8Z" fill="white" mask="url(#path-1-outside-1_303_25623)"/>
</svg>
