<svg width="16" height="3" viewBox="0 0 16 3" fill="none" xmlns="http://www.w3.org/2000/svg">
<mask id="path-1-outside-1_303_25627" maskUnits="userSpaceOnUse" x="0" y="0.0334473" width="16" height="3" fill="black">
<rect fill="white" y="0.0334473" width="16" height="3"/>
<path d="M14.5333 1.03345C14.7911 1.03345 15 1.24238 15 1.50011C15 1.75785 14.7911 1.96678 14.5333 1.96678L1.46667 1.96678C1.20893 1.96678 1 1.75785 1 1.50011C1 1.24238 1.20893 1.03345 1.46667 1.03345L14.5333 1.03345Z"/>
</mask>
<path d="M14.5333 1.03345C14.7911 1.03345 15 1.24238 15 1.50011C15 1.75785 14.7911 1.96678 14.5333 1.96678L1.46667 1.96678C1.20893 1.96678 1 1.75785 1 1.50011C1 1.24238 1.20893 1.03345 1.46667 1.03345L14.5333 1.03345Z" fill="white"/>
<path d="M1.46667 1.03345L1.46667 0.733447L1.46667 1.03345ZM1.46667 1.96678L1.46667 1.66678L1.46667 1.96678ZM14.5333 1.96678V2.26678V1.96678ZM14.5333 1.03345V1.33345V1.03345ZM14.5333 1.66678L1.46667 1.66678L1.46667 2.26678L14.5333 2.26678V1.66678ZM1.46667 1.33345L14.5333 1.33345V0.733448L1.46667 0.733447L1.46667 1.33345ZM1.3 1.50011C1.3 1.40807 1.37462 1.33345 1.46667 1.33345L1.46667 0.733447C1.04325 0.733447 0.7 1.0767 0.7 1.50011L1.3 1.50011ZM1.46667 1.66678C1.37462 1.66678 1.3 1.59216 1.3 1.50011L0.7 1.50011C0.7 1.92353 1.04325 2.26678 1.46667 2.26678L1.46667 1.66678ZM14.7 1.50011C14.7 1.59216 14.6254 1.66678 14.5333 1.66678V2.26678C14.9568 2.26678 15.3 1.92353 15.3 1.50011L14.7 1.50011ZM15.3 1.50011C15.3 1.0767 14.9568 0.733448 14.5333 0.733448V1.33345C14.6254 1.33345 14.7 1.40807 14.7 1.50011L15.3 1.50011Z" fill="white" mask="url(#path-1-outside-1_303_25627)"/>
</svg>
