<svg width="23" height="23" viewBox="0 0 23 23" fill="none" xmlns="http://www.w3.org/2000/svg">
<g clip-path="url(#clip0_303_25630)">
<path d="M7.58816 14.7228H7.58917C7.59001 14.7228 7.59085 14.7226 7.59169 14.7226H19.2773C19.565 14.7226 19.818 14.5318 19.897 14.2552L22.4751 5.23176C22.5307 5.03723 22.4918 4.82809 22.3701 4.66662C22.2482 4.50516 22.0577 4.41015 21.8555 4.41015H6.10171L5.64097 2.33675C5.57535 2.04184 5.31384 1.83203 5.01172 1.83203H1.14453C0.788528 1.83203 0.5 2.12056 0.5 2.47656C0.5 2.83256 0.788528 3.12109 1.14453 3.12109H4.49475C4.57632 3.48851 6.69958 13.0433 6.82177 13.593C6.13679 13.8908 5.65625 14.5738 5.65625 15.3672C5.65625 16.4333 6.52368 17.3008 7.58984 17.3008H19.2773C19.6333 17.3008 19.9219 17.0122 19.9219 16.6562C19.9219 16.3002 19.6333 16.0117 19.2773 16.0117H7.58984C7.23451 16.0117 6.94531 15.7225 6.94531 15.3672C6.94531 15.0124 7.2335 14.7237 7.58816 14.7228ZM21.0009 5.69922L18.7911 13.4336H8.10681L6.38806 5.69922H21.0009Z" fill="white"/>
<path d="M6.94531 19.2344C6.94531 20.3005 7.81274 21.168 8.87891 21.168C9.94507 21.168 10.8125 20.3005 10.8125 19.2344C10.8125 18.1682 9.94507 17.3008 8.87891 17.3008C7.81274 17.3008 6.94531 18.1682 6.94531 19.2344ZM8.87891 18.5898C9.23424 18.5898 9.52344 18.879 9.52344 19.2344C9.52344 19.5897 9.23424 19.8789 8.87891 19.8789C8.52357 19.8789 8.23437 19.5897 8.23437 19.2344C8.23437 18.879 8.52357 18.5898 8.87891 18.5898Z" fill="white"/>
<path d="M16.0547 19.2344C16.0547 20.3005 16.9221 21.168 17.9883 21.168C19.0544 21.168 19.9219 20.3005 19.9219 19.2344C19.9219 18.1682 19.0544 17.3008 17.9883 17.3008C16.9221 17.3008 16.0547 18.1682 16.0547 19.2344ZM17.9883 18.5898C18.3436 18.5898 18.6328 18.879 18.6328 19.2344C18.6328 19.5897 18.3436 19.8789 17.9883 19.8789C17.6329 19.8789 17.3437 19.5897 17.3437 19.2344C17.3437 18.879 17.6329 18.5898 17.9883 18.5898Z" fill="white"/>
</g>
<defs>
<clipPath id="clip0_303_25630">
<rect width="22" height="22" fill="white" transform="translate(0.5 0.5)"/>
</clipPath>
</defs>
</svg>
