<svg width="13" height="13" viewBox="0 0 13 13" fill="none" xmlns="http://www.w3.org/2000/svg">
<path fill-rule="evenodd" clip-rule="evenodd" d="M8.18255 8.97419C7.17659 9.77799 5.90105 10.1661 4.61791 10.0587C3.33477 9.9514 2.14142 9.35678 1.28298 8.39702C0.424527 7.43726 -0.0338632 6.1852 0.00195106 4.898C0.0377654 3.6108 0.565065 2.38618 1.47555 1.47564C2.38604 0.565098 3.6106 0.0377675 4.89772 0.00195117C6.18485 -0.0338652 7.43683 0.424551 8.39654 1.28305C9.35625 2.14155 9.95082 3.33496 10.0582 4.61817C10.1655 5.90139 9.77743 7.177 8.97367 8.18301L12.8218 12.0307C12.8768 12.0819 12.9209 12.1437 12.9515 12.2124C12.9821 12.281 12.9986 12.3552 12.9999 12.4303C13.0012 12.5055 12.9874 12.5802 12.9593 12.6499C12.9311 12.7196 12.8892 12.7829 12.8361 12.836C12.7829 12.8892 12.7196 12.9311 12.6499 12.9593C12.5802 12.9874 12.5055 13.0012 12.4304 12.9999C12.3552 12.9986 12.2811 12.9821 12.2124 12.9515C12.1438 12.9209 12.082 12.8768 12.0307 12.8218L8.18255 8.97419ZM2.267 7.80833C1.71921 7.26045 1.34612 6.56247 1.19488 5.80261C1.04364 5.04274 1.12104 4.25509 1.41729 3.5392C1.71354 2.82331 2.21536 2.21131 2.85931 1.78056C3.50326 1.3498 4.26045 1.11961 5.03518 1.11909C5.80991 1.11857 6.5674 1.34774 7.21193 1.77763C7.85646 2.20752 8.3591 2.81884 8.65632 3.53433C8.95354 4.24982 9.03199 5.03736 8.88177 5.79743C8.73156 6.5575 8.35941 7.25598 7.81236 7.8046L7.80863 7.80833L7.80489 7.81131C7.06981 8.54473 6.07369 8.95637 5.03533 8.95581C3.99697 8.95525 3.00129 8.54254 2.267 7.80833Z" fill="#3E4243"/>
</svg>
